<?xml version="1.0" standalone="no"?>
<!DOCTYPE svg PUBLIC "-//W3C//DTD SVG 20010904//EN"
 "http://www.w3.org/TR/2001/REC-SVG-20010904/DTD/svg10.dtd">
<svg version="1.0" xmlns="http://www.w3.org/2000/svg"
 width="500.000000pt" height="500.000000pt" viewBox="0 0 500.000000 500.000000"
 preserveAspectRatio="xMidYMid meet">
<metadata>
Created by potrace 1.14, written by Peter Selinger 2001-2017
</metadata>
<g transform="translate(0.000000,500.000000) scale(0.100000,-0.100000)"
fill="#000000" stroke="none">
<path d="M0 2500 l0 -2500 2500 0 2500 0 0 2500 0 2500 -2500 0 -2500 0 0
-2500z m1659 756 c45 -24 51 -52 51 -231 l0 -165 -28 -31 c-23 -26 -34 -31
-76 -31 -39 0 -54 5 -75 26 -26 26 -26 29 -29 192 -2 114 0 176 9 196 21 52
91 73 148 44z m372 -14 c26 -23 33 -38 37 -80 4 -51 4 -52 -22 -52 -23 0 -26
4 -26 33 0 42 -25 77 -55 77 -46 0 -55 -31 -55 -192 0 -135 2 -150 20 -168 42
-42 90 -8 90 65 0 41 2 45 25 45 23 0 25 -4 25 -44 0 -25 -4 -56 -10 -70 -23
-61 -122 -79 -169 -31 -26 25 -26 28 -29 191 -4 182 3 215 47 239 43 23 87 18
122 -13z m2569 15 c31 -15 60 -71 60 -114 0 -28 -4 -33 -24 -33 -20 0 -24 6
-29 40 -6 49 -22 70 -53 70 -49 0 -54 -19 -54 -190 0 -158 0 -160 25 -176 51
-33 85 5 85 97 0 46 -2 49 -25 49 -20 0 -25 5 -25 25 0 23 3 25 50 25 l50 0 0
-72 c0 -131 -28 -180 -104 -180 -95 0 -106 23 -106 231 0 88 4 171 10 185 17
47 88 69 140 43z m-4079 -10 c34 -26 39 -55 39 -222 l0 -167 -29 -29 c-27 -27
-35 -29 -105 -29 l-76 0 0 230 0 230 78 0 c45 -1 84 -6 93 -13z m389 -7 c0
-18 -7 -20 -70 -20 l-70 0 0 -80 0 -80 55 0 c52 0 55 -1 55 -25 0 -24 -3 -25
-55 -25 l-55 0 0 -80 0 -79 68 -3 c61 -3 67 -5 70 -25 3 -23 1 -23 -97 -23
l-101 0 0 230 0 230 100 0 c93 0 100 -1 100 -20z m250 -142 c18 -90 36 -169
40 -176 3 -7 21 66 40 163 l33 175 39 0 38 0 0 -230 0 -230 -25 0 -25 0 -2
173 -3 172 -35 -172 c-34 -170 -35 -173 -60 -173 -25 0 -26 3 -62 173 l-36
172 -1 -172 -1 -173 -25 0 -25 0 0 230 0 230 38 0 39 0 33 -162z m1237 138
c26 -22 28 -30 28 -95 0 -60 -3 -74 -22 -93 l-23 -22 22 -23 c18 -20 23 -38
26 -113 l4 -90 -25 0 c-30 0 -37 20 -37 107 0 53 -3 64 -22 77 -12 9 -35 16
-50 16 l-28 0 0 -100 0 -100 -25 0 -25 0 0 230 0 230 74 0 c65 0 79 -3 103
-24z m381 -198 c23 -123 42 -226 42 -230 0 -5 -11 -8 -24 -8 -21 0 -26 6 -33
43 l-9 42 -59 0 -59 0 -9 -42 c-7 -37 -12 -43 -34 -43 -21 0 -24 4 -20 23 3
12 22 108 42 212 46 244 39 225 84 225 l37 0 42 -222z m392 203 c0 -16 -8 -20
-42 -23 l-43 -3 -3 -207 -2 -208 -25 0 -25 0 0 210 0 210 -40 0 c-33 0 -40 3
-40 20 0 19 7 20 110 20 102 0 110 -1 110 -19z m190 -211 l0 -230 -25 0 -25 0
0 230 0 230 25 0 25 0 0 -230z m360 207 c0 -13 -34 -101 -75 -197 -41 -96 -75
-177 -75 -182 0 -4 34 -8 75 -8 73 0 75 -1 75 -25 l0 -25 -105 0 c-104 0 -105
0 -105 24 0 13 34 103 75 199 41 97 75 180 75 186 0 7 -27 11 -70 11 -63 0
-70 2 -70 20 0 19 7 20 100 20 98 0 100 0 100 -23z m200 -207 l0 -230 -25 0
-25 0 0 230 0 230 25 0 25 0 0 -230z m275 70 l50 -155 3 158 3 157 24 0 25 0
0 -230 0 -230 -30 0 c-29 0 -29 0 -89 183 l-59 182 -1 -182 c-1 -176 -2 -183
-21 -183 -19 0 -20 7 -20 231 l0 230 32 -3 32 -3 51 -155z m-2675 -779 c0 -16
-8 -20 -42 -23 l-43 -3 -3 -207 -2 -208 -25 0 -25 0 0 210 0 210 -40 0 c-33 0
-40 3 -40 20 0 19 7 20 110 20 102 0 110 -1 110 -19z m190 -81 l0 -100 55 0
55 0 0 100 0 100 30 0 30 0 0 -230 0 -230 -30 0 -30 0 0 105 0 105 -55 0 -55
0 0 -105 0 -105 -25 0 -25 0 0 230 0 230 25 0 25 0 0 -100z m510 80 c0 -17 -8
-19 -67 -22 l-68 -3 -3 -77 -3 -78 61 0 c57 0 60 -1 60 -25 0 -24 -3 -25 -60
-25 l-60 0 0 -80 0 -80 70 0 c68 0 70 -1 70 -25 0 -25 0 -25 -95 -25 l-95 0 0
230 0 230 95 0 c88 0 95 -2 95 -20z m322 6 c24 -18 38 -60 38 -116 0 -38 -6
-55 -26 -79 -21 -25 -23 -32 -11 -37 24 -9 30 -32 36 -127 l6 -87 -26 0 c-27
0 -27 1 -30 85 -2 46 -9 89 -16 96 -6 6 -29 12 -50 13 l-38 1 -3 -97 c-3 -97
-3 -98 -27 -98 l-25 0 0 230 0 230 78 0 c47 -1 84 -6 94 -14z m387 -203 c23
-120 44 -224 46 -230 3 -9 -6 -13 -25 -13 -26 0 -29 4 -36 45 l-6 45 -58 0
c-62 0 -60 2 -74 -62 -5 -21 -12 -28 -31 -28 -15 0 -23 5 -20 13 2 6 20 100
40 207 49 265 41 240 85 240 l38 0 41 -217z m361 199 c44 -36 48 -180 5 -229
-16 -19 -34 -27 -73 -31 l-52 -5 0 -88 c0 -88 0 -89 -25 -89 l-25 0 0 230 0
230 74 0 c56 0 79 -4 96 -18z m251 -87 c18 -58 36 -102 40 -98 3 5 21 52 39
106 28 87 34 97 56 97 13 0 24 -1 24 -3 0 -1 -22 -70 -50 -152 -43 -128 -50
-160 -50 -227 0 -77 0 -78 -25 -78 -25 0 -25 1 -25 81 0 69 -7 103 -45 221
-25 77 -45 144 -45 149 0 5 11 9 25 9 22 0 27 -9 56 -105z"/>
<path d="M1566 3198 c-13 -18 -16 -53 -16 -170 0 -135 2 -150 20 -168 11 -11
27 -20 35 -20 8 0 24 9 35 20 18 18 20 33 20 174 0 127 -3 157 -16 170 -22 23
-60 20 -78 -6z"/>
<path d="M400 3035 l0 -185 45 0 c34 0 47 5 55 19 5 11 10 85 10 170 0 144 -1
151 -22 165 -12 9 -37 16 -55 16 l-33 0 0 -185z"/>
<path d="M2270 3135 l0 -85 38 0 c52 0 62 14 62 87 0 59 -2 64 -26 73 -14 6
-36 10 -50 10 -24 0 -24 -2 -24 -85z"/>
<path d="M2684 3154 c-3 -22 -14 -78 -24 -126 l-17 -88 48 0 c31 0 49 4 49 12
0 16 -41 232 -45 237 -2 1 -7 -14 -11 -35z"/>
<path d="M2427 2293 c-4 -3 -7 -42 -7 -85 l0 -78 38 0 c58 0 67 11 67 80 0 49
-4 64 -19 76 -21 15 -68 19 -79 7z"/>
<path d="M2822 2152 c-12 -64 -22 -120 -22 -124 0 -5 22 -8 49 -8 l48 0 -23
121 c-13 67 -25 123 -27 125 -2 2 -13 -49 -25 -114z"/>
<path d="M3170 2206 l0 -96 38 0 c21 0 43 5 50 12 14 14 16 136 3 156 -4 8
-27 16 -50 19 l-41 6 0 -97z"/>
</g>
</svg>
